<?xml version="1.0" standalone="no"?>
<!DOCTYPE svg PUBLIC "-//W3C//DTD SVG 20010904//EN"
 "http://www.w3.org/TR/2001/REC-SVG-20010904/DTD/svg10.dtd">
<svg version="1.0" xmlns="http://www.w3.org/2000/svg"
 width="700.000000pt" height="500.000000pt" viewBox="0 0 700.000000 500.000000"
 preserveAspectRatio="xMidYMid meet">

<g transform="translate(0.000000,500.000000) scale(0.100000,-0.100000)"
fill="#000000" stroke="none">
<path d="M593 3256 c-94 -30 -187 -118 -222 -212 -20 -53 -21 -75 -21 -569 0
-503 0 -516 22 -572 29 -79 120 -171 203 -204 l60 -24 1345 -2 c740 -2 2034 0
2875 5 l1530 7 63 34 c71 38 128 98 164 169 l23 47 0 540 0 540 -34 63 c-41
75 -94 125 -170 161 l-56 26 -2870 2 c-2341 1 -2878 -1 -2912 -11z m4247 -365
c0 -39 0 -40 28 -30 59 20 114 -27 116 -99 1 -73 -57 -126 -115 -105 -17 7
-31 7 -35 2 -3 -5 -14 -9 -25 -9 -18 0 -19 8 -19 140 l0 140 25 0 c22 0 25 -4
25 -39z m1167 -43 c76 -35 109 -122 79 -203 -26 -67 -95 -123 -210 -169 -111
-44 -138 -63 -156 -105 l-12 -31 -208 -2 -208 -3 13 -40 c17 -48 64 -91 111
-100 48 -9 113 12 143 46 23 26 31 29 89 29 57 0 66 -3 85 -26 41 -53 121 -68
192 -35 77 35 134 123 159 244 l13 62 66 3 67 3 -6 -33 c-4 -18 -17 -64 -31
-103 -13 -38 -26 -77 -29 -85 -3 -10 25 -49 77 -105 l82 -90 -83 -3 -83 -3
-44 42 -43 43 -22 -22 c-13 -11 -50 -33 -83 -48 -98 -45 -215 -38 -296 18 -26
17 -28 17 -89 -14 -53 -28 -72 -32 -134 -32 -85 1 -129 17 -189 73 -147 136
-119 392 53 486 48 26 65 30 130 30 57 0 85 -6 116 -22 48 -26 109 -86 125
-124 11 -28 12 -28 38 -12 14 10 27 18 29 19 1 1 -12 25 -29 53 -43 69 -51
145 -20 195 55 88 195 117 308 64z m-4177 -48 l0 -60 -65 0 -65 0 0 60 0 60
65 0 65 0 0 -60z m1350 -320 l0 -380 -65 0 -65 0 0 380 0 380 65 0 65 0 0
-380z m1875 310 l22 -65 19 65 c18 59 22 65 48 68 21 3 27 0 24 -10 -3 -7 -22
-60 -43 -118 -42 -120 -57 -140 -97 -140 -21 0 -28 5 -28 20 0 13 7 20 20 20
40 0 37 17 -38 218 -3 10 3 13 23 10 25 -3 31 -10 50 -68z m-3537 -47 l3 -73
54 0 55 0 0 -45 0 -45 -55 0 -55 0 0 -179 c0 -132 3 -181 13 -189 7 -6 30 -12
52 -14 l40 -3 3 -47 3 -48 -74 0 c-41 0 -87 5 -103 10 -55 19 -59 36 -62 263
l-3 207 -40 0 -39 0 0 45 0 45 40 0 40 0 0 68 c0 38 3 72 7 76 4 4 32 6 63 4
l55 -3 3 -72z m2490 0 l3 -73 54 0 55 0 0 -45 0 -45 -55 0 -55 0 0 -178 c0
-125 4 -182 12 -190 7 -7 31 -12 55 -12 l43 0 0 -51 0 -51 -90 4 c-141 5 -150
23 -149 303 l1 170 -41 3 -41 3 0 45 0 44 40 0 40 0 0 68 c0 38 3 72 7 76 4 4
32 6 63 4 l55 -3 3 -72z m-2904 -74 c113 -31 196 -150 196 -281 l0 -38 -204 0
c-113 0 -207 -3 -209 -8 -3 -4 1 -25 9 -47 36 -108 174 -140 250 -59 30 31 38
34 89 34 54 0 56 -1 49 -22 -16 -52 -80 -119 -136 -142 -55 -23 -172 -21 -228
5 -101 46 -151 128 -158 260 -4 78 -2 92 23 148 57 126 186 187 319 150z
m1134 -4 c61 -19 106 -54 132 -106 11 -21 20 -41 20 -44 0 -3 -25 -5 -55 -5
-50 0 -58 3 -84 32 -26 29 -35 33 -99 36 -65 4 -73 2 -96 -21 -14 -15 -26 -31
-26 -37 0 -28 50 -58 121 -74 167 -37 221 -68 239 -137 20 -75 -17 -152 -93
-191 -50 -26 -172 -36 -233 -19 -79 21 -144 86 -156 156 -3 18 3 20 53 23 55
3 57 2 78 -33 26 -45 79 -69 138 -62 63 7 93 30 93 72 0 46 -21 59 -140 86
-116 26 -165 50 -190 92 -24 38 -26 106 -5 147 42 81 182 121 303 85z m607
-11 c45 -23 81 -70 94 -123 5 -20 11 -125 13 -234 l3 -197 -52 0 c-52 0 -52 0
-59 36 l-6 35 -27 -25 c-83 -79 -264 -74 -329 9 -31 39 -44 93 -32 136 21 76
100 119 267 148 l108 18 -4 34 c-4 46 -16 66 -51 84 -67 34 -165 4 -177 -55
-5 -30 -6 -30 -69 -30 l-63 0 8 28 c22 74 57 113 133 147 50 23 191 16 243
-11z m778 15 c21 -5 53 -24 72 -40 56 -49 65 -90 69 -304 2 -104 7 -198 11
-207 6 -16 0 -18 -54 -18 l-61 0 0 35 c0 40 -9 44 -28 14 -21 -34 -89 -59
-163 -59 -121 0 -209 69 -209 164 0 102 91 161 290 188 l92 12 -5 40 c-4 29
-15 49 -38 70 -29 25 -37 28 -85 24 -59 -5 -98 -31 -108 -74 -6 -22 -11 -24
-66 -24 -68 0 -69 3 -41 66 21 46 73 92 123 111 42 15 151 16 201 2z m-1795
-286 l2 -283 -65 0 -65 0 0 285 0 286 63 -3 62 -3 3 -282z"/>
<path d="M4852 2808 c-17 -17 -15 -84 4 -102 34 -34 74 -6 74 53 0 42 -14 61
-45 61 -12 0 -26 -5 -33 -12z"/>
<path d="M5853 2765 c-54 -23 -53 -77 3 -151 26 -33 27 -34 54 -18 36 22 60
64 60 106 0 58 -57 89 -117 63z"/>
<path d="M5347 2541 c-18 -17 -38 -46 -44 -65 l-11 -36 144 0 c92 0 144 4 144
10 0 25 -30 78 -55 98 -21 17 -41 22 -86 22 -50 0 -63 -4 -92 -29z"/>
<path d="M960 2562 c-33 -16 -61 -53 -75 -99 l-6 -23 145 0 c163 0 165 1 128
69 -35 65 -121 89 -192 53z"/>
<path d="M2680 2344 c-68 -18 -100 -47 -100 -89 0 -45 29 -68 93 -72 86 -7
141 40 153 130 l7 47 -49 -1 c-27 0 -74 -7 -104 -15z"/>
<path d="M3577 2358 c-88 -11 -137 -27 -163 -53 -30 -30 -30 -56 -1 -91 18
-20 35 -28 73 -31 93 -8 158 52 152 139 l-3 43 -58 -7z"/>
</g>
</svg>
